<?xml version="1.0" encoding="utf-8"?>
<!-- Generator: Adobe Illustrator 21.1.0, SVG Export Plug-In . SVG Version: 6.00 Build 0)  -->
<svg version="1.1" id="Layer_1" xmlns="http://www.w3.org/2000/svg" xmlns:xlink="http://www.w3.org/1999/xlink" x="0px" y="0px"
	 viewBox="0 0 290 237" style="enable-background:new 0 0 290 237;" xml:space="preserve">
<style type="text/css">
	.st0{fill:#7CBA75;stroke:#7CBA75;stroke-width:2;stroke-linecap:round;stroke-linejoin:round;stroke-miterlimit:10;}
</style>
<path class="st0" d="M128.9,114.9L202,33.4c1.9-2.1,5.2-2.1,7,0l64.1,75.5c0.9,1,11.4-3.1,8.8-6.2l-74.8-92.3
	c-1-1.2-2.5-1.8-4.1-1.6L72.2,21.3c-1.1,0.1-2.2,0.6-2.9,1.4L15.8,78.1c-0.9,0.9-2.3,2.1-2.3,3.3c0,0-0.6,8.1,1.5,8.6l109.3,26.3
	C125.9,116.7,127.7,116.2,128.9,114.9z"/>
<path class="st0" d="M268.8,111.6l-60.5-70.8c-1.3-1.5-3.5-1.5-4.8-0.1L129.6,122c-0.7,0.7-1.7,1-2.7,0.7l-101-24.4
	c-1.7-0.4-3.4,0.8-3.4,2.4v91.6c0,1,0.7,2,1.8,2.3l104.2,35.3c0,0,0,0,0.1,0l61.7-11.3c1.3-0.2,2.2-1.3,2.2-2.5v-65.1
	c0-1.2,1-2.2,2.3-2.5l21.4-3.6c1.7-0.3,3.3,0.9,3.3,2.5V209c0,1.6,1.6,2.8,3.4,2.4l44.4-8.8c1.3-0.3,2.2-1.3,2.2-2.4v-87
	C269.5,112.6,269.3,112,268.8,111.6z M66,171.6l-29-8.3v-30.6l29,7.2V171.6z M107,182.6l-29-8.3v-30.6l29,7.2V182.6z M177,177.2
	l-29,5.4v-31.7l29-4.9V177.2z M259,166.2l-29,5.4v-31.7l29-4.9V166.2z"/>
</svg>
