<?xml version="1.0" encoding="utf-8"?>
<!-- Generator: Adobe Illustrator 21.1.0, SVG Export Plug-In . SVG Version: 6.00 Build 0)  -->
<svg version="1.1" id="Layer_1" xmlns="http://www.w3.org/2000/svg" xmlns:xlink="http://www.w3.org/1999/xlink" x="0px" y="0px"
	 viewBox="0 0 304 286" style="enable-background:new 0 0 304 286;" xml:space="preserve">
<style type="text/css">
	.st0{fill:#7CBA75;}
</style>
<g>
	<path class="st0" d="M33.4,271.5c-0.8,0-1.5-0.7-1.5-1.5V77.3c0-0.4,0.2-0.8,0.4-1.1l59.9-59.3c0.3-0.3,0.7-0.4,1.1-0.4
		c0.4,0,0.8,0.1,1,0.4L154,75.2l58.9-58.2c0.3-0.3,0.7-0.4,1.1-0.4c0.4,0,0.8,0.1,1,0.4l60.6,59.3c0.3,0.3,0.5,0.7,0.5,1.1V270
		c0,0.8-0.7,1.5-1.5,1.5H33.4z M249.5,243.5v-20h-20v20H249.5z M198.5,243.5v-20h-20v20H198.5z M128.5,243.5v-20h-20v20H128.5z
		 M77.5,243.5v-20h-20v20H77.5z M249.5,198.5v-20h-20v20H249.5z M198.5,198.5v-20h-20v20H198.5z M128.5,198.5v-20h-20v20H128.5z
		 M77.5,198.5v-20h-20v20H77.5z M249.5,152.5v-20h-20v20H249.5z M198.5,152.5v-20h-20v20H198.5z M128.5,152.5v-20h-20v20H128.5z
		 M77.5,152.5v-20h-20v20H77.5z M249.5,104.5v-20h-20v20H249.5z M198.5,104.5v-20h-20v20H198.5z M128.5,104.5v-20h-20v20H128.5z
		 M77.5,104.5v-20h-20v20H77.5z"/>
	<path class="st0" d="M213.9,18l60.6,59.3V270H154H33.4V77.3L93.4,18L154,77.3L213.9,18 M228,106h23V83h-23V106 M177,106h23V83h-23
		V106 M107,106h23V83h-23V106 M56,106h23V83H56V106 M228,154h23v-23h-23V154 M177,154h23v-23h-23V154 M107,154h23v-23h-23V154
		 M56,154h23v-23H56V154 M228,200h23v-23h-23V200 M177,200h23v-23h-23V200 M107,200h23v-23h-23V200 M56,200h23v-23H56V200 M228,245
		h23v-23h-23V245 M177,245h23v-23h-23V245 M107,245h23v-23h-23V245 M56,245h23v-23H56V245 M213.9,15c-0.8,0-1.5,0.3-2.1,0.9
		L154,73.1L95.5,15.9c-0.6-0.6-1.3-0.9-2.1-0.9c-0.8,0-1.5,0.3-2.1,0.9L31.3,75.1c-0.6,0.6-0.9,1.3-0.9,2.1V270c0,1.7,1.3,3,3,3H154
		h120.6c1.7,0,3-1.3,3-3V77.3c0-0.8-0.3-1.6-0.9-2.1L216,15.9C215.5,15.3,214.7,15,213.9,15L213.9,15z M231,86h17v17h-17V86L231,86z
		 M180,86h17v17h-17V86L180,86z M110,86h17v17h-17V86L110,86z M59,86h17v17H59V86L59,86z M231,134h17v17h-17V134L231,134z M180,134
		h17v17h-17V134L180,134z M110,134h17v17h-17V134L110,134z M59,134h17v17H59V134L59,134z M231,180h17v17h-17V180L231,180z M180,180
		h17v17h-17V180L180,180z M110,180h17v17h-17V180L110,180z M59,180h17v17H59V180L59,180z M231,225h17v17h-17V225L231,225z M180,225
		h17v17h-17V225L180,225z M110,225h17v17h-17V225L110,225z M59,225h17v17H59V225L59,225z"/>
</g>
</svg>
