<?xml version="1.0" encoding="utf-8"?>
<!-- Generator: Adobe Illustrator 21.1.0, SVG Export Plug-In . SVG Version: 6.00 Build 0)  -->
<svg version="1.1" id="Layer_1" xmlns="http://www.w3.org/2000/svg" xmlns:xlink="http://www.w3.org/1999/xlink" x="0px" y="0px"
	 viewBox="0 0 394 347" style="enable-background:new 0 0 394 347;" xml:space="preserve">
<style type="text/css">
	.st0{fill:#FFFFFF;}
</style>
<g>
	<path class="st0" d="M375.3,249.4L323,222.6c-14.5-7.5-32.4-2.9-41.5,10.7l-4,5.9c-8.7,12.8-25.3,17.7-39.5,11.6
		c-34.8-15-97.8-48.4-135.6-105.5c-8.3-12.6-6.7-29.3,3.7-40.1l17-17.6c9.6-9.9,6.4-18.8-1-30.4c-0.1-0.1-0.1-0.2-0.2-0.3L89.5,19.4
		c-4-4.6-9.6-7.6-15.7-8.2C56.6,9.5,26.1,12.5,15,45c-19.1,55.9-8,132,92.5,210.5c161,125.7,238,79.9,257,48
		c24.7-41.5,12.9-52.6,11.2-53.9C375.6,249.6,375.5,249.5,375.3,249.4z"/>
</g>
</svg>
